<?xml version="1.0" encoding="utf-8"?>
<!-- Generator: Adobe Illustrator 26.1.0, SVG Export Plug-In . SVG Version: 6.00 Build 0)  -->
<svg version="1.1" id="Ebene_2_1_" xmlns="http://www.w3.org/2000/svg" xmlns:xlink="http://www.w3.org/1999/xlink" x="0px" y="0px"
	 viewBox="0 0 217 62" style="enable-background:new 0 0 217 62;" xml:space="preserve">
<style type="text/css">
	.st0{fill:#9E9F9E;}
	.st1{fill:#008E48;}
</style>
<path class="st0" d="M109.8,17.9h-9V4.6h-9.1v34.6h9.1V25.6h9v13.6h9.1V4.6h-9.1V17.9z M180.8,23c-2.7-0.4-3.5-0.7-3.5-1.7
	c0-1.5,1.3-1.9,3-1.9s4.2,0.9,4.8,2.5l4.6-3c-1.9-3.9-6.1-4.9-9.8-4.9c-6,0-9.5,3.9-9.5,8.7c0,1.5,0.5,3.4,1.8,4.9
	c1.4,1.7,3.5,2.4,7.5,3.1c4.3,0.7,4.5,1.4,4.5,2.3c0,1.1-1.3,1.9-3.5,1.9c-2.8,0-4.7-0.8-6.4-3.4l-4.6,3.3c2.5,3.9,6.1,5.2,10.2,5.2
	c8.3,0,11.4-3.5,11.4-8.7C191.3,26.5,187.8,24,180.8,23z M214.6,28c0-9.5-4.7-13.7-10.8-13.7c-6.7,0-10.9,5.4-10.9,12.8
	c0,8.1,4.5,12.8,10.9,12.8c4.9,0,8.3-2.2,10.8-6.6l-4.8-2.6c-0.9,2.2-2.9,3.6-4.7,3.6c-2.7,0-4.8-2.2-4.8-5.6h14.2V28H214.6z
	 M207.1,24.1h-6.4c0-2.7,0.9-4.7,3.4-4.7C206.2,19.3,207.2,21.5,207.1,24.1z M132.2,13.9c-6.7,0-11,5.5-11,13c0,8.2,4.5,13,11,13
	c6.6,0,11-5.2,11-13C143.2,18.9,138.5,13.9,132.2,13.9z M132.2,34.3c-2.1,0-3.4-1.6-3.4-7.4s1.3-7.4,3.4-7.4c2.1,0,3.4,1.6,3.4,7.4
	C135.7,32.7,134.4,34.3,132.2,34.3z M159.4,31.9c-1.2,1.2-2.3,2.3-3.5,2.3c-2.1,0-2.5-1.8-2.5-3.6v-16h-8.1v18.2
	c0,6.2,4.4,7.6,6.6,7.6c3,0,5.5-2.1,7.5-4.2v3h8.1V14.6h-8.1V31.9z"/>
<path class="st1" d="M17.9,10.2c3.4,0,5.2,3.1,5.6,6.6l8.9-1.3C30.7,7.5,25.3,3,17.9,3C8.2,3,2.3,10.2,2.3,21.7s5.9,18.7,15,18.7
	c3.3,0,7.5-1.2,9.5-4.5l2.8,3.8h2.7v-18H18.1V28h5.5c-0.1,3.2-2.7,5.2-5.6,5.2s-5.7-1.9-5.7-11.5C12.2,12.1,15,10.2,17.9,10.2z
	 M45.9,13c-7.2,0-11.8,5.6-11.8,13.5C34.1,35,39,40,45.9,40c7.1,0,11.8-5.3,11.8-13.5S52.7,13,45.9,13z M45.9,34.1
	c-2.3,0-3.7-1.6-3.7-7.6s1.4-7.6,3.7-7.6s3.7,1.6,3.7,7.6C49.6,32.5,48.2,34.1,45.9,34.1z M59.3,39.2h8.3V4.6h-8.3V39.2z M82.7,9.7
	c0.4,0,0.9,0.1,1.6,0.2V4.2c-2.1-0.2-3.4-0.4-4-0.4c-5.5,0-9.1,1.7-8,9.6l0.1,1.4H69v5.6h3.4v18.7h8.1V20.5h3.9v-5.6h-3.9v-2.6
	C80.5,10.2,81.7,9.7,82.7,9.7z"/>
</svg>
