<svg width="692" height="147" viewBox="0 0 692 147" fill="none" xmlns="http://www.w3.org/2000/svg">
<path fill-rule="evenodd" clip-rule="evenodd" d="M386.577 77.8557C393.758 77.8557 399.236 79.761 402.3 81.2883V91.9787C399.045 90.8297 392.23 88.6262 386.577 88.6262C379.754 88.6262 370.643 92.2624 370.643 112.189C370.643 133.279 377.743 135.861 382.636 135.861C385.414 135.861 390.029 135.286 391.755 134.915V114.778L382.636 114.778L381.685 104.567L405.181 104.567V143.119C400.098 144.544 390.797 146.551 382.826 146.551C370.453 146.551 357.216 143.119 357.216 113.156C357.216 83.2954 373.239 77.8557 386.577 77.8557ZM438.765 77.8577C448.263 77.94 462.257 80.6734 462.257 112.189C462.257 144.733 448.355 146.551 438.286 146.551C427.923 146.551 414.293 144.442 414.293 112.189C414.293 79.9501 428.786 77.8557 438.286 77.8557L438.765 77.8577ZM264.417 0.000738253C277.367 0.0236253 290.324 3.0426 301.667 9.71536L302.26 11.1178C298.293 23.8728 297.092 28.1171 293.306 41.47L291.337 42.0974C283.932 33.0257 272.959 31.2247 266.683 31.2025C258.974 31.173 252.741 33.3653 246.842 38.702C232.872 51.4349 227.855 78.458 227.812 92.4827C227.776 100.713 229.303 106.271 231.837 109.681C234.587 113.106 237.903 114.302 242.832 114.346C244.765 114.354 245.771 114.132 247.53 113.741L251.735 94.3575C251.983 93.2119 252.477 90.7927 253.042 87.9736L253.476 85.7978C254.582 80.2393 255.783 74.0425 255.926 72.9663L257.28 71.7631C272.98 71.8591 276.324 71.8591 294.189 71.2981L295.145 72.5234C292.191 84.496 287.993 101.887 287.189 105.311C284.989 114.907 283.02 124.466 280.407 133.87C280.009 135.671 279.647 137.487 278.988 139.258L277.642 140.69C264.692 146.219 245.474 146.551 241.898 146.551C216.621 146.448 205.076 137.406 198.235 127.965C188.666 114.73 187.732 98.934 187.768 90.7259C187.928 55.908 206.726 -0.234723 264.417 0.000738253ZM691.534 0.000738253V146.551H682.375V0.000738253L691.534 0.000738253ZM334.318 0.000738253V146.551H325.159V0.000738253L334.318 0.000738253ZM153.396 36.6383C161.987 36.6679 170.608 38.2606 178.188 42.4133L178.608 44.5805C177.176 48.915 175.759 53.3004 174.35 57.5985C173.316 61.3439 172.305 65.2856 171.279 69.0383L169.272 69.6274C166.681 67.2347 163.102 63.6784 156.326 63.6202C138.118 63.5838 132.605 90.9579 132.568 102.201C132.546 105.554 132.915 110.856 135.934 115.023C139.285 119.787 144.886 121.168 149.676 121.19C154.496 121.212 159.308 120.027 163.485 117.488L164.873 118.288C161.257 128.906 160.681 130.703 157.441 142.492L155.618 144.281C153.824 144.841 149.403 146.608 138.192 146.55C110.796 146.477 96.0344 132.826 96.1746 106.616C96.2189 84.5217 108.618 36.4643 153.396 36.6383ZM622.457 78.8083L634.553 103.331C639.35 113.054 643.006 124.036 643.006 124.036C643.006 124.036 641.456 109.433 641.456 102.08V78.8083H654.897V145.584H643.006L629.763 118.69C625.646 110.298 621.594 98.9457 621.594 98.9457C621.594 98.9457 622.326 104.961 622.813 111.46L622.951 113.418C623.123 116.035 623.24 118.64 623.24 120.879V145.584H609.799V78.8083H622.457ZM598.289 78.8083L597.331 90.1606H573.835V104.567H593.974V114.865H573.835V134.239H597.806V145.584H560.401V78.8083H598.289ZM549.849 78.8083L548.599 90.2552H525.863V104.567H546.025V114.865H525.863V145.584H512.43V78.8083H549.849ZM485.292 78.8083V134.239H505.717L504.481 145.584H471.859V78.8083H485.292ZM39.7448 0.000738253L40.9485 1.19586C40.9025 2.11819 40.861 3.01948 40.8235 3.91451L40.7538 5.7006C40.4951 12.8465 40.4728 20.2216 40.4306 35.3853L39.7886 99.5848L66.504 36.8663C70.9176 25.9049 76.8779 10.6616 80.0586 3.32216L81.6417 1.92174C97.0494 1.81176 99.4204 1.81176 113.668 1.04922L114.492 2.21502C108.89 13.3598 100.551 31.6019 95.1672 42.93L66.2413 102.635C63.0533 109.38 59.6902 116.331 56.524 123.238C54.3281 128.055 52.3219 132.99 48.9296 139.728L47.5362 141.312C39.8825 141.379 34.5842 141.412 29.5278 141.472L26.5061 141.512C20.9575 141.592 15.1901 141.719 6.39068 141.971L5.42041 140.784L5.41934 140.105C5.39379 136.009 5.04397 125.831 4.36989 105.59L1.65603 35.6052C1.47365 29.8349 0.37206 6.62159 0 2.62562L1.37152 1.64312C18.1726 1.09322 21.9297 1.11521 39.7448 0.000738253ZM438.286 87.3971C431.558 87.3971 427.726 91.7751 427.726 112.189C427.726 132.894 432.618 137.01 438.286 137.01C444.129 137.01 448.838 133.184 448.838 112.189C448.838 92.1678 444.801 87.3971 438.286 87.3971ZM596.441 0.000738253C601.39 0.000738253 605.262 1.0713 607.824 2.23047V12.2938C604.647 11.2232 600.314 10.1527 597.056 10.1527C591.061 10.1527 585.754 13.8073 585.754 32.0513C585.754 48.3534 589.553 53.8613 596.178 53.8613C600.314 53.8613 604.75 52.7095 607.824 51.6389V61.7022C605.006 62.9574 600.936 64.1166 595.299 64.1166C584.956 64.1166 573.412 60.8236 573.412 32.0513C573.412 3.20505 587.957 0.000738253 596.441 0.000738253ZM396.67 0.886724L395.777 11.489H374.16V24.9412H392.695V34.5468H374.16V52.6209H396.224V63.2232H361.796V0.886724L396.67 0.886724ZM418.909 0.886724V63.2232H406.377V0.886724L418.909 0.886724ZM444.252 0.886724L455.372 23.7747C456.744 26.5953 458.012 29.5255 459.108 32.2255L459.812 33.9877C461.845 39.1496 463.131 43.0892 463.131 43.0892C463.131 43.0892 461.726 29.4745 461.726 22.6155V0.886724L474.082 0.886724V63.2232H463.131L450.965 38.1129C448.235 32.5175 445.573 25.5094 444.275 21.9616L443.927 21.006C443.624 20.1638 443.454 19.677 443.454 19.677C443.454 19.677 444.955 32.3244 444.955 40.158V63.2232H432.598V0.886724L444.252 0.886724ZM629.456 0.886724V24.9412H647.12V0.886724L659.477 0.886724V63.2232H647.12V34.5468H629.456V63.2232H617.099V0.886724L629.456 0.886724ZM552.395 0.886724L568.983 63.2232H555.923L553.376 51.1073H536.049L533.501 63.2232H520.427L537.03 0.886724L552.395 0.886724ZM522.191 0.886724L521.049 11.585H500.128V24.9412H518.67V34.5468H500.128V63.2232H487.764V0.886724L522.191 0.886724ZM544.709 8.90489C543.911 12.914 542.857 18.9682 541.349 26.0118L538.091 41.487H551.326L548.069 26.0118C547.817 24.8379 547.561 23.6049 547.308 22.361L546.932 20.493C545.816 14.9005 544.84 9.57492 544.709 8.90489Z" fill="#95C11F"/>
</svg>
